<svg width="60" height="60" viewBox="0 0 60 60" fill="none" xmlns="http://www.w3.org/2000/svg">
<g clip-path="url(#clip0_726_202)">
<path d="M48.75 31.4299L30 49.9999L11.25 31.4299C10.0133 30.2265 9.03911 28.78 8.38887 27.1815C7.73863 25.5831 7.42641 23.8673 7.47184 22.1423C7.51728 20.4172 7.91941 18.7203 8.65289 17.1583C9.38638 15.5963 10.4353 14.2031 11.7337 13.0664C13.0321 11.9297 14.5518 11.0742 16.197 10.5537C17.8423 10.0331 19.5775 9.85891 21.2934 10.042C23.0093 10.225 24.6687 10.7613 26.1672 11.6172C27.6656 12.4731 28.9706 13.63 30 15.015C31.0338 13.64 32.3403 12.4933 33.8378 11.6465C35.3352 10.7997 36.9912 10.2711 38.7023 10.0938C40.4134 9.91643 42.1427 10.0942 43.7819 10.6159C45.4212 11.1377 46.9351 11.9921 48.2289 13.1259C49.5227 14.2596 50.5686 15.6482 51.3011 17.2047C52.0335 18.7612 52.4369 20.4522 52.4858 22.1717C52.5347 23.8913 52.2282 25.6024 51.5853 27.1981C50.9425 28.7937 49.9773 30.2395 48.75 31.445" stroke="#B12A43" stroke-width="3" stroke-linecap="round" stroke-linejoin="round"/>
<path d="M30 15L21.7675 23.2325C21.2988 23.7013 21.0355 24.3371 21.0355 25C21.0355 25.6629 21.2988 26.2987 21.7675 26.7675L23.125 28.125C24.85 29.85 27.65 29.85 29.375 28.125L31.875 25.625C33.3669 24.1332 35.3902 23.2951 37.5 23.2951C39.6098 23.2951 41.6332 24.1332 43.125 25.625L48.75 31.25" stroke="#B12A43" stroke-width="3" stroke-linecap="round" stroke-linejoin="round"/>
<path d="M31.25 38.75L36.25 43.75" stroke="#B12A43" stroke-width="3" stroke-linecap="round" stroke-linejoin="round"/>
<path d="M37.5 32.5L42.5 37.5" stroke="#B12A43" stroke-width="3" stroke-linecap="round" stroke-linejoin="round"/>
</g>
<defs>
<clipPath id="clip0_726_202">
<rect width="60" height="60" fill="white"/>
</clipPath>
</defs>
</svg>
